<?xml version="1.0" encoding="utf-8"?>
<!-- Generator: Adobe Illustrator 27.7.0, SVG Export Plug-In . SVG Version: 6.00 Build 0)  -->
<svg version="1.1" id="レイヤー_1" xmlns="http://www.w3.org/2000/svg" xmlns:xlink="http://www.w3.org/1999/xlink" x="0px"
	 y="0px" viewBox="0 0 1280 1036" style="enable-background:new 0 0 1280 1036;" xml:space="preserve">
<style type="text/css">
	.st0{enable-background:new    ;}
	.st1{font-family:'KozGoPr6N-Regular-90ms-RKSJ-H';}
	.st2{font-size:71.4042px;}
	.st3{font-family:'ArialMT';}
	.st4{font-size:42.8425px;}
	.st5{letter-spacing:-20;}
	.st6{font-size:51px;}
	.st7{font-size:31.2px;}
	.st8{letter-spacing:-14;}
	.st9{opacity:0.31;}
	.st10{fill:#999999;}
</style>
<text transform="matrix(1 0 0 1 207.1797 137.313)" class="st0"><tspan x="0" y="0" class="st1 st2">はじめに</tspan><tspan x="285.6" y="0" class="st3 st2"> </tspan></text>
<text transform="matrix(1 0 0 1 175.8797 241.1844)" class="st0"><tspan x="0" y="0" class="st1 st4">「</tspan><tspan x="42.8" y="0" class="st3 st4">Register</tspan><tspan x="202.4" y="0" class="st1 st4">」から</tspan><tspan x="330.9" y="0" class="st3 st4"> </tspan></text>
<text transform="matrix(1 0 0 1 200.0397 316.1644)" class="st0"><tspan x="0" y="0" class="st1 st4">登録をしよう！</tspan><tspan x="299.9" y="0" class="st3 st4"> </tspan></text>
<text transform="matrix(1 0 0 1 167.9097 391.1344)" class="st1 st4">そのあとはみんな</text>
<text transform="matrix(1 0 0 1 510.6497 391.1344)" class="st1 st4 st5">、</text>
<text transform="matrix(1 0 0 1 532.0697 395.5093)" class="st3 st4"> </text>
<text transform="matrix(1 0 0 1 210.7997 470.4893)" class="st3 st4">HELLO FRIEND</text>
<text transform="matrix(1 0 0 1 712.999 661.0285)" class="st0"><tspan x="0" y="0" class="st1 st6">登録が終わったら</tspan><tspan x="408" y="0" class="st3 st6"> </tspan></text>
<text transform="matrix(1 0 0 1 803.509 735.6671)" class="st0"><tspan x="0" y="0" class="st1 st7">「</tspan><tspan x="31.2" y="0" class="st3 st7">Log in</tspan><tspan x="116.2" y="0" class="st1 st7">」から</tspan><tspan x="209.8" y="0" class="st3 st7"> </tspan></text>
<text transform="matrix(1 0 0 1 792.199 790.267)" class="st0"><tspan x="0" y="0" class="st1 st7">ログインしよう！</tspan><tspan x="249.6" y="0" class="st3 st7"> </tspan></text>
<text transform="matrix(1 0 0 1 784.399 844.8671)" class="st1 st7">そのあとはみんな</text>
<text transform="matrix(1 0 0 1 1033.999 844.8671)" class="st1 st7 st8">、</text>
<text transform="matrix(1 0 0 1 1049.599 847.5905)" class="st3 st7"> </text>
<text transform="matrix(1 0 0 1 807.829 902.1905)" class="st3 st7">HELLO FRIEND</text>
<g>
	<g>
		<path d="M122.6,72.4c7.3,12,5.9,26.1,3.3,39.3c-2.6,13.4-6.7,26.8-6.3,40.6c0.2,6.7,1.6,13.2,4.4,19.3c3.1,6.6,7.5,12.4,11.2,18.6
			c3.7,6.1,6.9,12.8,6.9,20.1c0,6.3-2.3,12.4-5.1,18c-5.6,11.1-14.1,21.2-16.7,33.6c-1.3,6.2-0.7,12.3,1.7,18.1
			c3,7,7.9,13,11.1,19.9c6.4,14,1.2,29.2-2.4,43.1c-1.8,6.8-3.3,13.7-3.3,20.8c0,7.8,2.5,14.5,6,21.3c4.1,8.1,6,16.2,5.1,25.3
			c-0.9,8.9-4.1,17.6-7.8,25.7c-3.5,7.7-7.3,15.5-12,22.6c-4.5,6.9-10.5,13-18.7,15c-4,1-8.2,0.8-11.9-1c-1.8-0.8-3.1,1.4-1.5,2.6
			c20.4,15.4,48.5,19.1,72.5,10.7c6.8-2.4,13.2-5.7,19-10c-0.6-0.1-1.2-0.2-1.8-0.2c11.3,11.6,28.9,11.8,44,13
			c19.9,1.6,39.7,3.3,59.5,4.7c19.9,1.5,39.8,2.6,59.8,2.4c10-0.1,20.1-0.5,30.1-1.4c9.7-0.9,19.3-2.4,29-3.2
			c10.1-0.8,19.8,0,29.7,2c9.1,1.9,18,3.4,27.3,2.8c18.6-1.2,36.7-7.9,55.5-6.3c17.9,1.5,36.4,8.4,54.2,2.6
			c15.3-4.9,27.9-17.6,35.5-31.4c1.9-3.5,3.6-7.2,4.9-10.9c1.2-3.4,3-7.6,2.6-11.3c-0.3-3.3-2.9-5.1-5.7-6.5
			c-3.8-1.9-7.9-3.4-12-4.7c-16.2-5.2-33.9-5.9-50.5-2.1c-4.2,1-8.3,2.2-12.3,3.7c-1.8,0.7-1.1,3.3,0.8,2.9c9.8-2,13.1,12.8,14,19.7
			c1.7,13.8,3.2,27.5,4.8,41.2c0.2,1.9,3.2,1.9,3,0c-1-8.1-1.9-16.2-2.8-24.2c-0.8-7.2-1.3-14.6-2.7-21.7c-1.7-8.3-6.7-20.1-17.1-18
			c0.3,1,0.5,1.9,0.8,2.9c15.8-6,33-7.5,49.6-4.5c8.1,1.5,16.5,3.9,23.8,7.8c1.9,1,3.4,2.3,3.3,4.7c-0.1,2-0.9,4.2-1.5,6.1
			c-1.2,3.8-2.7,7.6-4.5,11.2c-7.1,14.1-19.5,27.3-34.9,32.2c-17.2,5.5-35.2-1.1-52.4-2.6c-17.8-1.6-34.8,4-52.2,5.9
			c-9.3,1-18.2,0.3-27.3-1.6c-8.8-1.8-17.4-3.4-26.4-3.2c-9.4,0.2-18.6,1.6-27.9,2.7c-9.3,1.1-18.6,1.8-28,2.1
			c-18.9,0.7-37.8,0-56.7-1.2c-18.9-1.2-37.7-2.8-56.6-4.4c-9.1-0.7-18.3-1.4-27.5-2.2c-7.5-0.7-15.2-1.7-22.1-4.9
			c-3.4-1.6-6.5-3.7-9.1-6.4c-0.4-0.4-1.3-0.6-1.8-0.2c-25.8,18.8-63.1,18.5-88.5-0.7c-0.5,0.9-1,1.7-1.5,2.6
			c6.7,3.1,14.2,2.2,20.7-1.2c7.1-3.8,12.1-10.4,16.1-17.2c8.5-14.5,17.1-31.2,18.3-48.3c0.6-8.6-1.4-16.5-5.2-24.2
			c-2-4-4.1-7.9-5.1-12.2c-0.9-3.7-1.1-7.6-0.8-11.4c0.9-15,7.9-28.9,8.7-43.9c0.4-7.3-1.1-14.2-4.5-20.7
			c-3.7-7.1-9.1-13.5-11.2-21.4c-3.5-13.3,4.9-25.6,11.4-36.5c6.6-11.1,12.9-23.3,9.2-36.5c-4-14.4-16.3-24.8-20.1-39.3
			c-3.6-14,0.2-28.8,3.2-42.6c2.8-13.1,6-27.3,2-40.5c-0.9-3.1-2.3-6.1-4-8.9C124.2,69.2,121.6,70.7,122.6,72.4L122.6,72.4z"/>
	</g>
</g>
<g>
	<g>
		<path d="M608.3,435.7C608,413,592,394.9,581.7,376c-5.1-9.2-9.3-19.4-8.8-30.2c0.7-14.3,10.3-25.5,16.8-37.6
			c6.2-11.5,10-26.2,1.6-37.7c-3.9-5.4-9.4-9.6-12.5-15.6c-3.2-6.2-3.7-13.4-3-20.3c1.7-14.8,9.6-27.8,14.1-41.7
			c2-6.1,4.6-14.3,2.2-20.7c-1.1-2.9-3.2-5.2-5.2-7.4c-2.4-2.6-4.8-5.2-7-7.9c-9.1-10.8-17.3-23.5-18.5-37.9
			c-1-12.9,3.2-26.2,11.5-36.1c2-2.4,4.2-4.6,6.7-6.6c1-0.8,0.2-2.7-1.1-2.6c-16.4,1.2-32.8,2.4-49.3,3.5c-14.6,1-29.7,1.9-43.8-2.7
			c-7.1-2.3-13-6.5-19.4-10.3c-6.1-3.6-12.6-5.7-19.8-5.4c-7.4,0.3-14.5,2.5-21.5,4.9c-7.4,2.6-14.8,5.2-22.4,7.1
			c-15.2,3.8-30.9,5.4-46.6,5c-16-0.5-31.2-3.9-46.7-7.3c-7.6-1.7-15.4-3.2-23.2-3.9c-7.5-0.6-14.9-0.3-22.4,0.7
			c-14.9,2-29.3,6.2-44,8.9c-7.5,1.4-15,2.4-22.6,2.4c-7.8,0-15.4-1.2-22.9-2.7c-14-2.9-28.4-7.2-42.8-5.3c-3.4,0.5-6.7,1.3-9.9,2.5
			c-1.8,0.7-1,3.6,0.8,2.9c14.2-5.4,29.3-2.1,43.6,1.1c7.1,1.6,14.2,3.2,21.5,4c7.4,0.8,14.9,0.6,22.2-0.3
			c14.8-1.8,29.2-5.9,43.8-8.8c7.5-1.5,15.1-2.6,22.7-2.8c8-0.2,15.8,0.7,23.6,2.2c15.3,2.9,30.2,7.2,45.7,8.7
			c15.3,1.4,30.7,0.8,45.9-1.8c7.6-1.3,15.2-3.1,22.6-5.5c7.3-2.3,14.4-5.2,21.8-7.1c7.4-1.9,15.3-2.8,22.6-0.1
			c6.9,2.5,12.6,7.5,19.2,10.8c12.8,6.3,27.3,7.1,41.3,6.5c15.9-0.6,31.9-2.1,47.8-3.3c4.1-0.3,8.2-0.6,12.4-0.9
			c-0.3-0.8-0.7-1.7-1.1-2.6c-9.7,7.9-16.3,19.5-18.4,31.8c-2.3,13.2,0.8,26.1,7.5,37.5c3.6,6.1,7.9,11.7,12.5,17
			c2.3,2.6,4.7,5.2,7,7.8c2.8,3.2,4.2,6.4,3.8,10.8c-1.3,15.3-10.2,28.8-14.6,43.3c-3.7,12.4-4.8,27,3.2,37.9
			c4,5.5,9.9,9.8,12.8,16.2c3,6.8,2,14.5-0.3,21.3c-4.7,13.7-15.3,24.4-19.5,38.3c-3.2,10.6-1.5,21.6,2.7,31.6
			c8.6,20.6,25.9,37.5,30.2,59.9c0.5,2.7,0.8,5.4,0.8,8.2C605.4,437.6,608.4,437.6,608.3,435.7L608.3,435.7z"/>
	</g>
</g>
<g>
	<g>
		<path d="M551.5,239.4c0.3,4.6,2.1,8.8,4.2,12.8c2.3,4.4,4.7,8.7,7,13c0.9,1.7,3.5,0.2,2.6-1.5c-2.2-4.1-4.4-8.1-6.6-12.2
			c-2-3.8-3.9-7.7-4.2-12.1C554.4,237.5,551.4,237.5,551.5,239.4L551.5,239.4z"/>
	</g>
</g>
<g>
	<g>
		<path d="M556.9,240c3.1,7.3,6.8,14.4,11,21.1c1,1.6,3.6,0.1,2.6-1.5c-4.2-6.5-7.8-13.3-10.8-20.4c-0.3-0.8-1-1.3-1.8-1.1
			C557.2,238.3,556.6,239.2,556.9,240L556.9,240z"/>
	</g>
</g>
<g>
	<g>
		<path d="M564.3,247.6c2,3.7,3.9,7.5,5.9,11.2c0.4,0.7,1.4,0.9,2,0.5c0.7-0.4,0.9-1.3,0.5-2c-2-3.7-3.9-7.5-5.9-11.2
			c-0.4-0.7-1.4-0.9-2-0.5C564.2,246,564,246.9,564.3,247.6L564.3,247.6z"/>
	</g>
</g>
<g>
	<g>
		<path d="M131.4,166.1c3.1,6.5,6.7,12.8,10.8,18.7c1.1,1.6,3.7,0.1,2.6-1.5c-4.1-5.9-7.7-12.2-10.8-18.7
			C133.2,162.8,130.6,164.3,131.4,166.1L131.4,166.1z"/>
	</g>
</g>
<g>
	<g>
		<path d="M140.4,173.9c1.8,3,3.6,6,5.5,9c0.4,0.7,1.4,1,2.1,0.5c0.7-0.4,1-1.3,0.5-2.1c-1.8-3-3.6-6-5.5-9c-0.4-0.7-1.4-1-2.1-0.5
			C140.3,172.3,140,173.2,140.4,173.9L140.4,173.9z"/>
	</g>
</g>
<g>
	<g>
		<path d="M150.2,176.5c1.9,0,1.9-3,0-3C148.3,173.5,148.2,176.5,150.2,176.5L150.2,176.5z"/>
	</g>
</g>
<g>
	<g>
		<path d="M141.6,296.3c2.9,5.1,6.1,10.5,6.1,16.5c0.1,3.2-0.7,6.3-1.5,9.3c-0.9,3.3-1.8,6.5-2.7,9.8c-0.5,1.9,2.4,2.7,2.9,0.8
			c0.9-3.5,1.9-7,2.9-10.5c0.8-3.2,1.5-6.5,1.4-9.9c-0.3-6.4-3.4-12.1-6.6-17.6C143.2,293.1,140.6,294.6,141.6,296.3L141.6,296.3z"
			/>
	</g>
</g>
<g>
	<g>
		<path d="M136.1,295.7c4.2,8.7,6.1,18.4,5.4,28.1c-0.1,1.9,2.9,1.9,3,0c0.6-10.2-1.4-20.4-5.9-29.6
			C137.8,292.5,135.2,294,136.1,295.7L136.1,295.7z"/>
	</g>
</g>
<g>
	<g>
		<path d="M150.3,317.6c1.2,5,0.3,10.3-2.3,14.7c-1,1.7,1.6,3.2,2.6,1.5c3.1-5.1,4-11.2,2.6-17C152.8,314.9,149.9,315.7,150.3,317.6
			L150.3,317.6z"/>
	</g>
</g>
<g class="st9">
	<path class="st10" d="M551,132.2c-2.1,7.1-9.7,10.9-16.6,13.4c-15.7,5.6-32,8.9-48.3,12.3c-21.7,4.4-43.4,8.8-65.1,13.2
		c42.5,11.7,87.7,4.1,131.7,6.9c9.8,0.6,19.9,1.8,29.2-1.3c1-0.3,2-0.7,2.5-1.6c0.5-0.9,0.3-2.1,0-3.1c-1.8-5.5-6.6-9.4-10.5-13.6
		c-5.9-6.4-10.1-14.3-12.3-22.7c-0.6-2.2-1.7-5.1-4-4.9c-0.8,0-1.5,0.5-2.2,0.9c-2.6,1.6-5.1,3.2-7.7,4.8"/>
	<g>
		<path class="st10" d="M549.5,131.8c-2.1,6.6-9.2,10-15.3,12.2c-8.6,3.1-17.5,5.5-26.4,7.6c-18.4,4.3-37.1,7.8-55.6,11.5
			c-10.6,2.1-21.2,4.3-31.8,6.5c-1.5,0.3-1.4,2.5,0,2.9c15.5,4.2,31.6,6,47.6,6.6c16.3,0.6,32.6,0,48.9-0.2
			c8.1-0.1,16.2-0.1,24.4,0.1c8,0.2,16,1.1,24,1.2c4,0.1,7.9-0.1,11.8-0.8c1.9-0.3,3.8-0.8,5.6-1.5c1.6-0.6,2.9-1.6,3.2-3.4
			c0.5-3.1-1.9-6.7-3.7-9.1c-2.1-2.7-4.6-5.1-7-7.6c-4.9-5.3-8.8-11.6-11.2-18.4c-1-2.9-1.3-6.6-3.5-8.9c-2.7-2.9-6-0.5-8.6,1.2
			c-1.8,1.1-3.5,2.2-5.3,3.2c-1.6,1-0.1,3.6,1.5,2.6c1.6-1,3.2-2,4.9-3c0.8-0.5,1.6-1,2.4-1.5c0.6-0.4,1.5-1.2,2.3-0.9
			c0.9,0.3,1.4,1.7,1.7,2.5c0.5,1.6,0.9,3.3,1.5,4.9c2.2,6.5,5.6,12.5,9.9,17.8c3.9,4.7,9.8,8.8,11.8,14.9c0.2,0.7,0.5,1.6,0,2.2
			c-0.5,0.5-1.5,0.7-2.2,0.9c-1.9,0.6-3.8,1-5.8,1.3c-3.7,0.5-7.4,0.5-11.1,0.4c-7.6-0.3-15.2-1-22.9-1.2
			c-7.6-0.2-15.1-0.2-22.7-0.1c-15.4,0.2-30.9,0.7-46.3,0.3c-17-0.4-34.1-2.1-50.5-6.6c0,1,0,1.9,0,2.9c19.3-3.9,38.7-7.9,58-11.8
			c18.6-3.8,37.5-7.2,55.4-13.7c7.2-2.6,15.2-6.5,17.7-14.4C553,130.7,550.1,129.9,549.5,131.8L549.5,131.8z"/>
	</g>
</g>
<g class="st9">
	<path class="st10" d="M571.4,263.4c-61.9,6.9-124.7,0.3-186.6,7c19.9,5.5,40.9,5,61.6,5.3c13.1,0.1,26.3,0.6,39.4,1.3
		c27.8,1.5,55.5,4.2,83.1,8c8.2,1.1,16.5,2.3,24.5,0.3c2-0.5,4.2-1.5,4.5-3.5c0.2-1.2-0.4-2.4-1-3.4c-6-10.6-16.6-18.4-28.4-21.1"/>
	<g>
		<path class="st10" d="M571.4,261.9c-24.2,2.7-48.5,3.3-72.8,3.5c-24.3,0.2-48.7-0.1-73,0.7c-13.6,0.5-27.2,1.3-40.8,2.8
			c-1.6,0.2-2.1,2.5-0.4,3c16.8,4.6,34.4,5.1,51.8,5.2c18.2,0.1,36.4,0.6,54.5,1.7c18.2,1.1,36.3,2.6,54.4,4.7
			c9,1,17.9,2.2,26.8,3.4c4.3,0.6,8.7,1.1,13,1c3.8-0.1,8.3-0.3,11.6-2.2c1.3-0.7,2.4-1.9,2.7-3.3c0.5-2-0.6-3.9-1.6-5.5
			c-1.8-3-3.9-5.8-6.3-8.2c-4.8-5-10.8-8.9-17.4-11.2c-1.7-0.6-3.4-1.1-5.1-1.5c-1.9-0.4-2.7,2.5-0.8,2.9c6.5,1.5,12.7,4.5,17.8,8.9
			c2.6,2.1,4.9,4.6,6.9,7.3c1,1.3,1.9,2.7,2.7,4.1c0.9,1.6,1.4,3.1-0.5,4.1c-1.5,0.8-3.3,1.1-4.9,1.4c-2,0.3-4.1,0.4-6.2,0.4
			c-4.2,0-8.4-0.5-12.6-1c-8.6-1.2-17.2-2.3-25.8-3.3c-17.3-2-34.8-3.5-52.2-4.6c-17.4-1.1-34.8-1.7-52.2-1.8
			c-16.7-0.1-33.6-0.1-50-3.7c-2-0.4-4-0.9-6-1.5c-0.1,1-0.3,2-0.4,3c24.2-2.6,48.5-3.2,72.8-3.3c24.3-0.1,48.7,0.1,73-0.7
			c13.6-0.5,27.2-1.4,40.8-2.9C573.3,264.7,573.3,261.7,571.4,261.9L571.4,261.9z"/>
	</g>
</g>
<g class="st9">
	<path class="st10" d="M154.4,389.8c19.3,1.9,38.7,3.8,58,5.7c22.7,2.2,45.4,4.5,68.1,6.7c16,1.6,32.1,3.1,48.1,3
		c11.6-0.1,23.3-1,34.9-1.8c37-2.6,74.1-3.8,111.1-3.5c-12.8,12.5-31.5,17-49.4,17.5c-17.9,0.6-35.7-2.1-53.6-1.4
		c-11.4,0.5-22.6,2.3-33.9,3.9c-32.7,4.8-65.7,8.1-98.7,7.6c-30.9-0.5-61.9-4.2-92.8-2.6c4-5.6,5.6-13,4.1-19.7
		c-2.4-11.3-12.4-19.6-16.5-30.4c7.5,2.6,14.2,7.5,19,13.9"/>
	<g>
		<path class="st10" d="M154.4,391.3c41.8,4.1,83.6,8.2,125.4,12.3c20.5,2,41,3.8,61.6,2.7c20.9-1,41.8-2.8,62.7-3.7
			c23.5-1,47-1.4,70.5-1.3c-0.4-0.9-0.7-1.7-1.1-2.6c-13.3,12.9-32.4,16.8-50.3,17.2c-11.2,0.2-22.3-0.8-33.5-1.3
			c-11.2-0.5-22.3-0.2-33.4,1.1c-11.1,1.4-22.2,3.2-33.3,4.7c-11.3,1.5-22.5,2.7-33.9,3.7c-22.4,1.9-44.8,2.3-67.3,1.3
			c-22.4-1-44.8-2.9-67.2-2.4c-2.8,0.1-5.6,0.2-8.4,0.3c0.4,0.8,0.9,1.5,1.3,2.3c5.7-8.1,6.1-18.4,2-27.3
			c-3.9-8.5-10.9-15.2-14.3-24c-0.6,0.6-1.2,1.2-1.9,1.9c7.2,2.5,13.5,7.1,18.1,13.2c1.1,1.5,3.8,0,2.6-1.5
			c-5.1-6.8-11.9-11.8-19.9-14.6c-1-0.4-2.3,0.8-1.9,1.9c3.2,8.2,9.3,14.7,13.5,22.4c2.1,4,3.6,8.3,3.5,12.9c0,4.9-1.6,9.6-4.4,13.7
			c-0.6,0.9,0.2,2.3,1.3,2.3c22.8-1.2,45.5,0.5,68.2,1.7c22.7,1.2,45.3,1.2,68-0.5c22.7-1.6,45.1-4.9,67.6-8
			c11.3-1.6,22.6-2.5,34-2.1c11.3,0.3,22.5,1.4,33.8,1.5c18.3,0.2,37.9-2.4,52.9-13.8c1.7-1.3,3.4-2.7,4.9-4.2
			c0.9-0.9,0.2-2.5-1.1-2.6c-21-0.1-42,0.2-63.1,1c-21,0.8-41.9,2.2-62.8,3.6c-10.3,0.7-20.5,1-30.9,0.6
			c-10.3-0.4-20.5-1.2-30.8-2.2c-20.9-2-41.8-4.1-62.6-6.1c-23.4-2.3-46.8-4.6-70.1-6.9C152.5,388.1,152.5,391.1,154.4,391.3
			L154.4,391.3z"/>
	</g>
</g>
<g class="st9">
	<path class="st10" d="M143,384.6c0.9,8.5,1.3,17.1,1.3,25.7c0,2.5,0,5-0.7,7.3c-1.1,3.9-4,7.2-4.1,11.3c6.4-0.1,12.5-4,15.3-9.7"/>
	<g>
		<path class="st10" d="M141.5,384.6c0.8,8,1.3,16.1,1.3,24.2c0,3.7,0,7.3-1.6,10.7c-1.4,3-3.1,5.9-3.3,9.4c0,0.8,0.7,1.5,1.5,1.5
			c6.9-0.2,13.5-4.2,16.6-10.5c0.9-1.7-1.7-3.2-2.6-1.5c-2.7,5.3-8.1,8.8-14,9c0.5,0.5,1,1,1.5,1.5c0.1-3.3,2.2-6.2,3.4-9.1
			c1.4-3.5,1.4-7.2,1.4-10.9c-0.1-8.1-0.5-16.2-1.3-24.2C144.3,382.7,141.3,382.7,141.5,384.6L141.5,384.6z"/>
	</g>
</g>
<g class="st9">
	<path class="st10" d="M131.5,174.4c13.6,6,27.9,11.2,42.8,11.9c9.9,0.4,19.8-1.2,29.7-1.9c15.1-1.1,30.2,0,45.3,1.1
		c5.2,0.4,10.4,0.8,15.6,1.1c7.9,0.6,15.8,1.2,23.6,2.6c7.4,1.3,14.9,3.3,22.3,2.2c-42.8,12.1-87.1,17.6-131.2,23.2
		c-6.3,0.8-12.6,1.6-18.9,0.6c-1.6-0.3-3.3-0.7-4.6-1.7c-1.8-1.4-2.5-3.7-3.2-5.9c-4.3-13.2-9.8-26-16.6-38.1"/>
	<g>
		<path class="st10" d="M130.7,175.7c10.4,4.6,21.2,8.8,32.4,10.8c5.8,1.1,11.6,1.5,17.4,1.3c6-0.2,12-0.9,18-1.5
			c12.1-1.2,24.2-1,36.4-0.3c12,0.7,24.1,1.6,36.1,2.6c6.8,0.6,13.5,1.3,20.2,2.6c6.6,1.3,13.1,2.5,19.8,1.6c-0.3-1-0.5-1.9-0.8-2.9
			c-26,7.3-52.7,12.3-79.4,16.3c-13.3,2-26.6,3.7-39.9,5.4c-6.7,0.9-13.5,1.9-20.2,2.4c-3.4,0.2-6.8,0.2-10.2-0.3
			c-1.4-0.2-2.8-0.6-3.9-1.5c-1.1-0.9-1.6-2.3-2.1-3.6c-2.4-6.8-4.7-13.6-7.5-20.2c-2.9-6.7-6.1-13.3-9.7-19.7
			c-0.9-1.7-3.5-0.2-2.6,1.5c6.5,11.7,12,24.1,16.1,36.8c0.8,2.5,1.6,5.4,3.6,7.2c2.4,2.2,5.8,2.5,8.9,2.7
			c6.9,0.5,13.8-0.6,20.6-1.5c27.4-3.4,54.8-6.9,81.9-12.1c15.2-2.9,30.2-6.3,45.1-10.5c1.9-0.5,1.1-3.2-0.8-2.9
			c-6,0.8-11.9-0.4-17.8-1.5c-5.7-1.1-11.4-1.9-17.2-2.4c-11.9-1.1-23.9-1.9-35.8-2.7c-12-0.8-24-1.3-35.9-0.4
			c-11.7,0.9-23.4,2.9-35.2,1.5c-12.6-1.5-24.7-6.1-36.3-11.2C130.5,172.4,129,174.9,130.7,175.7L130.7,175.7z"/>
	</g>
</g>
<g>
	<g>
		<path d="M675.4,540c7.3,12,5.9,26.1,3.3,39.3c-2.6,13.4-6.7,26.8-6.3,40.6c0.2,6.7,1.6,13.2,4.5,19.3c3.1,6.6,7.5,12.5,11.2,18.7
			c3.7,6.1,6.9,12.8,6.9,20.2c0,6.3-2.3,12.4-5.1,18c-5.6,11.1-14.1,21.2-16.7,33.6c-1.3,6.2-0.7,12.3,1.7,18.1
			c3,7,7.9,13,11.1,19.9c6.4,14,1.2,29.2-2.4,43.1c-1.8,6.8-3.3,13.7-3.3,20.8c0,7.8,2.5,14.5,6,21.3c4.1,8.1,6,16.2,5.1,25.3
			c-0.9,8.9-4.1,17.6-7.8,25.7c-3.5,7.7-7.3,15.5-12,22.6c-4.5,6.9-10.5,13-18.7,15c-4,1-8.2,0.8-11.9-1c-1.8-0.8-3,1.4-1.5,2.6
			c20.4,15.4,48.5,19.1,72.5,10.7c6.8-2.4,13.2-5.7,19-10c-0.6-0.1-1.2-0.2-1.8-0.2c11.3,11.6,28.9,11.8,44,13
			c19.8,1.6,39.7,3.3,59.5,4.7c19.9,1.5,39.8,2.6,59.8,2.4c10-0.1,20.1-0.5,30.1-1.4c9.7-0.9,19.3-2.4,29-3.2
			c10.1-0.8,19.8,0,29.7,2c9.1,1.9,18,3.4,27.3,2.8c18.7-1.2,36.7-7.9,55.5-6.3c17.9,1.5,36.3,8.4,54.2,2.6
			c15.3-4.9,27.9-17.6,35.5-31.4c1.9-3.5,3.6-7.2,4.9-10.9c1.2-3.4,3-7.6,2.6-11.3c-0.3-3.3-2.9-5.1-5.7-6.5
			c-3.8-1.9-7.9-3.4-11.9-4.7c-16.2-5.2-33.9-5.9-50.5-2.1c-4.2,1-8.3,2.2-12.3,3.7c-1.8,0.7-1.1,3.3,0.8,2.9
			c9.8-2,13.1,12.8,14,19.7c1.7,13.8,3.2,27.5,4.8,41.2c0.2,1.9,3.2,1.9,3,0c-0.9-8.1-1.9-16.2-2.8-24.2c-0.8-7.2-1.3-14.6-2.7-21.7
			c-1.7-8.3-6.7-20.1-17.1-18c0.3,1,0.5,1.9,0.8,2.9c15.8-6,33-7.5,49.6-4.5c8.1,1.5,16.5,3.9,23.8,7.8c1.9,1,3.4,2.3,3.3,4.7
			c-0.1,2-0.9,4.2-1.5,6.1c-1.2,3.8-2.7,7.6-4.5,11.2c-7.1,14.1-19.5,27.3-34.9,32.2c-17.2,5.5-35.2-1.1-52.4-2.6
			c-17.8-1.6-34.8,4-52.2,5.9c-9.3,1-18.2,0.3-27.3-1.6c-8.8-1.8-17.4-3.4-26.4-3.2c-9.3,0.2-18.6,1.7-27.9,2.7
			c-9.3,1.1-18.6,1.8-28,2.1c-18.9,0.7-37.8,0-56.7-1.2c-18.9-1.2-37.7-2.8-56.6-4.3c-9.2-0.7-18.3-1.4-27.5-2.2
			c-7.5-0.7-15.2-1.7-22.1-4.9c-3.4-1.6-6.5-3.7-9.1-6.4c-0.4-0.4-1.3-0.6-1.8-0.2c-25.8,18.8-63.1,18.5-88.5-0.7
			c-0.5,0.9-1,1.7-1.5,2.6c6.7,3.1,14.2,2.2,20.7-1.2c7.1-3.8,12.1-10.4,16.1-17.2c8.5-14.5,17.1-31.2,18.3-48.3
			c0.6-8.6-1.4-16.5-5.2-24.2c-2-4-4.1-7.9-5.1-12.2c-0.9-3.7-1.1-7.6-0.8-11.4c1-15,7.9-28.9,8.7-43.9c0.4-7.3-1.1-14.2-4.5-20.7
			c-3.7-7.1-9.1-13.5-11.2-21.3c-3.5-13.3,4.9-25.6,11.4-36.5c6.6-11.1,12.9-23.3,9.2-36.5c-4-14.4-16.3-24.8-20.1-39.3
			c-3.6-14,0.2-28.8,3.2-42.6c2.8-13.1,6-27.3,2-40.5c-1-3.1-2.3-6.1-4-8.9C677,536.9,674.4,538.4,675.4,540L675.4,540z"/>
	</g>
</g>
<g>
	<g>
		<path d="M1161.2,903.3c-0.3-22.7-16.3-40.8-26.7-59.7c-5.1-9.2-9.3-19.4-8.8-30.2c0.7-14.3,10.3-25.5,16.8-37.6
			c6.2-11.5,10-26.2,1.6-37.7c-3.9-5.4-9.4-9.6-12.5-15.6c-3.2-6.2-3.7-13.5-3-20.3c1.7-14.8,9.6-27.8,14.1-41.7
			c2-6.1,4.6-14.3,2.2-20.7c-1.1-2.9-3.2-5.2-5.2-7.4c-2.4-2.6-4.8-5.2-7-7.9c-9.1-10.8-17.3-23.5-18.5-37.9
			c-1-12.9,3.2-26.2,11.5-36.1c2-2.4,4.2-4.6,6.7-6.5c1-0.8,0.2-2.7-1.1-2.6c-16.4,1.2-32.8,2.4-49.3,3.5c-14.6,1-29.7,1.9-43.8-2.7
			c-7.1-2.3-13-6.5-19.4-10.3c-6.1-3.6-12.7-5.7-19.8-5.4c-7.4,0.3-14.5,2.5-21.5,4.9c-7.4,2.5-14.8,5.2-22.4,7
			c-15.2,3.8-30.9,5.4-46.6,5c-16-0.5-31.2-3.9-46.7-7.3c-7.6-1.7-15.3-3.2-23.2-3.9c-7.5-0.6-14.9-0.3-22.4,0.7
			c-14.9,2-29.3,6.2-44,8.9c-7.5,1.4-15,2.4-22.7,2.4c-7.8,0-15.4-1.2-22.9-2.7c-14-2.9-28.4-7.2-42.8-5.3c-3.4,0.5-6.7,1.3-10,2.5
			c-1.8,0.7-1,3.6,0.8,2.9c14.2-5.4,29.3-2.1,43.6,1.1c7.1,1.6,14.2,3.2,21.5,4c7.4,0.8,14.8,0.6,22.2-0.3
			c14.8-1.8,29.2-5.9,43.8-8.8c7.5-1.5,15.1-2.6,22.7-2.8c8-0.2,15.8,0.7,23.6,2.2c15.3,2.9,30.2,7.2,45.7,8.7
			c15.3,1.4,30.7,0.8,45.8-1.8c7.6-1.3,15.2-3.1,22.6-5.5c7.3-2.3,14.4-5.2,21.8-7.1c7.4-1.9,15.3-2.8,22.6-0.1
			c6.9,2.5,12.6,7.5,19.2,10.8c12.8,6.3,27.3,7.1,41.3,6.5c15.9-0.6,31.9-2.1,47.8-3.3c4.1-0.3,8.2-0.6,12.4-0.9
			c-0.3-0.8-0.7-1.7-1.1-2.6c-9.7,7.9-16.3,19.5-18.4,31.8c-2.3,13.2,0.8,26.1,7.5,37.5c3.6,6.1,7.9,11.7,12.5,17
			c2.3,2.6,4.7,5.2,7,7.8c2.8,3.2,4.2,6.4,3.8,10.8c-1.3,15.3-10.2,28.8-14.6,43.3c-3.7,12.4-4.8,27,3.2,37.9
			c4.1,5.5,9.9,9.8,12.8,16.2c3,6.8,2,14.5-0.3,21.3c-4.7,13.7-15.3,24.4-19.5,38.3c-3.2,10.6-1.5,21.6,2.7,31.6
			c8.6,20.6,25.9,37.5,30.2,59.9c0.5,2.7,0.8,5.4,0.8,8.2C1158.2,905.3,1161.2,905.3,1161.2,903.3L1161.2,903.3z"/>
	</g>
</g>
<g>
	<g>
		<path d="M1104.4,707.1c0.3,4.6,2.1,8.8,4.2,12.8c2.3,4.4,4.7,8.7,7,13c0.9,1.7,3.5,0.2,2.6-1.5c-2.2-4.1-4.4-8.1-6.6-12.2
			c-2-3.8-3.9-7.7-4.2-12.1C1107.2,705.2,1104.2,705.2,1104.4,707.1L1104.4,707.1z"/>
	</g>
</g>
<g>
	<g>
		<path d="M1109.7,707.6c3.1,7.3,6.8,14.4,11.1,21.1c1,1.6,3.6,0.1,2.6-1.5c-4.2-6.5-7.8-13.3-10.8-20.4c-0.3-0.8-1-1.3-1.8-1
			C1110.1,706,1109.4,706.9,1109.7,707.6L1109.7,707.6z"/>
	</g>
</g>
<g>
	<g>
		<path d="M1117.2,715.2c2,3.7,3.9,7.5,5.9,11.2c0.4,0.7,1.4,0.9,2.1,0.5c0.7-0.4,0.9-1.3,0.5-2c-2-3.7-3.9-7.5-5.9-11.2
			c-0.4-0.7-1.4-0.9-2.1-0.5C1117,713.6,1116.8,714.5,1117.2,715.2L1117.2,715.2z"/>
	</g>
</g>
<g>
	<g>
		<path d="M684.3,633.7c3.1,6.5,6.7,12.8,10.8,18.7c1.1,1.6,3.7,0.1,2.6-1.5c-4.1-5.9-7.7-12.2-10.8-18.7
			C686,630.5,683.4,632,684.3,633.7L684.3,633.7z"/>
	</g>
</g>
<g>
	<g>
		<path d="M693.3,641.6c1.8,3,3.6,6,5.5,9c0.4,0.7,1.4,1,2,0.5c0.7-0.4,1-1.3,0.5-2c-1.8-3-3.6-6-5.5-9c-0.4-0.7-1.4-1-2-0.5
			C693.1,640,692.8,640.9,693.3,641.6L693.3,641.6z"/>
	</g>
</g>
<g>
	<g>
		<path d="M703,644.1c1.9,0,1.9-3,0-3S701.1,644.1,703,644.1L703,644.1z"/>
	</g>
</g>
<g>
	<g>
		<path d="M694.4,764c2.9,5.1,6,10.5,6.2,16.5c0,3.2-0.7,6.3-1.5,9.3c-0.9,3.3-1.8,6.5-2.7,9.8c-0.5,1.9,2.4,2.7,2.9,0.8
			c1-3.5,1.9-7,2.8-10.5c0.8-3.2,1.5-6.5,1.4-9.9c-0.3-6.4-3.4-12.2-6.5-17.6C696,760.8,693.5,762.3,694.4,764L694.4,764z"/>
	</g>
</g>
<g>
	<g>
		<path d="M688.9,763.4c4.2,8.7,6.1,18.4,5.4,28.1c-0.1,1.9,2.9,1.9,3,0c0.7-10.2-1.4-20.4-5.8-29.6
			C690.6,760.1,688,761.6,688.9,763.4L688.9,763.4z"/>
	</g>
</g>
<g>
	<g>
		<path d="M703.2,785.3c1.2,5,0.3,10.3-2.3,14.7c-1,1.7,1.6,3.2,2.6,1.5c3-5.1,4-11.2,2.6-17C705.6,782.6,702.7,783.4,703.2,785.3
			L703.2,785.3z"/>
	</g>
</g>
<g class="st9">
	<path class="st10" d="M1103.8,599.8c-2.1,7.1-9.7,10.8-16.6,13.3c-15.7,5.6-32,9-48.3,12.3c-21.7,4.4-43.4,8.8-65.1,13.2
		c42.5,11.7,87.7,4.1,131.7,7c9.8,0.6,19.9,1.8,29.2-1.3c0.9-0.3,1.9-0.7,2.4-1.6c0.5-0.9,0.3-2.1,0-3.1c-1.8-5.5-6.6-9.4-10.5-13.6
		c-5.9-6.4-10.1-14.3-12.3-22.7c-0.6-2.2-1.7-5.1-4-4.9c-0.8,0-1.5,0.5-2.2,0.9c-2.6,1.6-5.1,3.2-7.7,4.8"/>
	<g>
		<path class="st10" d="M1102.3,599.5c-2.1,6.7-9.2,10-15.3,12.2c-8.6,3.1-17.4,5.5-26.3,7.6c-18.4,4.3-37.1,7.8-55.6,11.5
			c-10.6,2.2-21.2,4.3-31.8,6.5c-1.5,0.3-1.4,2.5,0,2.9c15.5,4.2,31.6,6,47.6,6.6c16.3,0.6,32.6,0,48.9-0.2
			c8.1-0.1,16.2-0.1,24.4,0.1c8,0.2,16,1.1,24,1.2c4,0.1,7.9-0.1,11.8-0.8c1.9-0.3,3.8-0.8,5.6-1.5c1.6-0.6,2.9-1.6,3.2-3.4
			c0.5-3.1-1.9-6.7-3.7-9.1c-2.1-2.7-4.6-5.1-7-7.6c-4.9-5.3-8.8-11.6-11.2-18.4c-1-2.8-1.3-6.6-3.5-8.8c-2.7-2.9-6-0.5-8.6,1.2
			c-1.8,1.1-3.5,2.2-5.3,3.2c-1.6,1-0.1,3.6,1.5,2.6c1.6-1,3.2-2,4.9-3c0.8-0.5,1.6-1,2.4-1.5c0.6-0.4,1.5-1.2,2.3-0.9
			c0.9,0.3,1.4,1.7,1.7,2.5c0.6,1.6,0.9,3.3,1.4,4.9c2.2,6.5,5.6,12.5,9.9,17.8c3.9,4.7,9.8,8.8,11.8,14.9c0.2,0.7,0.5,1.6,0,2.2
			c-0.5,0.5-1.5,0.7-2.2,0.9c-1.9,0.6-3.8,1-5.8,1.3c-3.7,0.5-7.4,0.5-11.1,0.4c-7.6-0.3-15.2-1-22.9-1.2
			c-7.6-0.2-15.1-0.2-22.7-0.1c-15.4,0.2-30.9,0.7-46.3,0.3c-17-0.5-34.1-2.1-50.5-6.6c0,1,0,1.9,0,2.9c19.3-3.9,38.7-7.8,58-11.8
			c18.6-3.8,37.5-7.2,55.4-13.7c7.2-2.6,15.2-6.5,17.7-14.4C1105.8,598.4,1102.9,597.6,1102.3,599.5L1102.3,599.5z"/>
	</g>
</g>
<g class="st9">
	<path class="st10" d="M1124.2,731.1c-61.9,6.9-124.7,0.3-186.6,7c19.9,5.5,40.9,5,61.6,5.3c13.1,0.2,26.3,0.6,39.4,1.3
		c27.8,1.5,55.5,4.2,83.1,8c8.2,1.1,16.5,2.3,24.5,0.3c2-0.5,4.2-1.5,4.6-3.5c0.2-1.2-0.4-2.4-1-3.4c-6-10.6-16.6-18.4-28.4-21.1"/>
	<g>
		<path class="st10" d="M1124.2,729.6c-24.2,2.7-48.5,3.3-72.8,3.5c-24.3,0.2-48.7-0.1-73,0.7c-13.6,0.5-27.2,1.3-40.8,2.8
			c-1.6,0.2-2.1,2.5-0.4,3c16.8,4.7,34.4,5.1,51.8,5.2c18.2,0.2,36.4,0.6,54.5,1.7c18.2,1.1,36.3,2.6,54.4,4.7
			c9,1,17.9,2.2,26.8,3.4c4.3,0.6,8.7,1.1,13,1c3.8-0.1,8.3-0.3,11.6-2.2c1.3-0.7,2.4-1.9,2.7-3.3c0.5-2-0.6-3.9-1.6-5.5
			c-1.8-3-3.9-5.8-6.3-8.2c-4.8-5-10.8-8.8-17.4-11.2c-1.7-0.6-3.4-1.1-5.1-1.5c-1.9-0.4-2.7,2.5-0.8,2.9c6.5,1.5,12.7,4.5,17.8,8.8
			c2.6,2.1,4.9,4.6,6.9,7.3c1,1.3,1.9,2.7,2.7,4.1c0.9,1.6,1.4,3.1-0.5,4.1c-1.5,0.8-3.3,1.1-4.9,1.4c-2,0.3-4.1,0.4-6.2,0.4
			c-4.2,0-8.4-0.5-12.6-1c-8.6-1.2-17.2-2.3-25.8-3.3c-17.3-2-34.8-3.5-52.2-4.6c-17.4-1.1-34.8-1.7-52.2-1.8
			c-16.7-0.1-33.6-0.1-50-3.7c-2-0.4-4-0.9-6-1.5c-0.1,1-0.3,2-0.4,3c24.2-2.6,48.5-3.2,72.8-3.3c24.3-0.1,48.7,0.1,73-0.7
			c13.6-0.5,27.2-1.4,40.8-2.9C1126.1,732.4,1126.1,729.4,1124.2,729.6L1124.2,729.6z"/>
	</g>
</g>
<g class="st9">
	<path class="st10" d="M707.3,857.5c19.3,1.9,38.7,3.8,58,5.7c22.7,2.2,45.4,4.5,68.1,6.7c16,1.6,32.1,3.1,48.1,3
		c11.6-0.1,23.3-1,34.9-1.8c37-2.6,74.1-3.8,111.1-3.5c-12.8,12.5-31.5,17-49.4,17.5c-17.9,0.6-35.7-2.1-53.6-1.4
		c-11.4,0.5-22.7,2.3-33.9,3.9c-32.7,4.8-65.7,8.1-98.7,7.6c-31-0.5-61.9-4.2-92.8-2.6c4-5.6,5.6-13,4.1-19.7
		c-2.4-11.3-12.4-19.6-16.5-30.4c7.5,2.6,14.2,7.5,19,13.9"/>
	<g>
		<path class="st10" d="M707.3,859c41.8,4.1,83.6,8.2,125.4,12.3c20.5,2,41,3.8,61.6,2.7c20.9-1,41.8-2.8,62.7-3.7
			c23.5-1,47-1.4,70.5-1.3c-0.3-0.8-0.7-1.7-1.1-2.6c-13.3,12.9-32.4,16.8-50.3,17.2c-11.2,0.2-22.3-0.8-33.5-1.3
			c-11.2-0.5-22.3-0.2-33.4,1.1c-11.1,1.3-22.2,3.2-33.3,4.7c-11.3,1.5-22.5,2.7-33.9,3.7c-22.4,1.9-44.8,2.3-67.3,1.3
			c-22.4-1-44.8-2.9-67.2-2.4c-2.8,0.1-5.6,0.2-8.4,0.3c0.4,0.8,0.9,1.5,1.3,2.3c5.7-8.1,6.1-18.4,2-27.3
			c-3.9-8.5-10.9-15.2-14.3-24c-0.6,0.6-1.2,1.2-1.8,1.8c7.2,2.5,13.5,7.2,18.1,13.2c1.2,1.5,3.8,0,2.6-1.5
			c-5.1-6.8-11.9-11.8-19.9-14.6c-1-0.4-2.3,0.8-1.8,1.8c3.2,8.2,9.3,14.7,13.5,22.4c2.2,4,3.6,8.3,3.5,12.9c0,4.9-1.6,9.7-4.4,13.7
			c-0.6,0.9,0.2,2.3,1.3,2.3c22.8-1.2,45.5,0.5,68.2,1.7c22.7,1.2,45.3,1.2,68-0.5c22.7-1.6,45.1-4.9,67.6-8
			c11.3-1.6,22.6-2.5,34-2.2c11.3,0.3,22.5,1.4,33.8,1.5c18.3,0.2,37.9-2.4,52.9-13.8c1.7-1.3,3.4-2.7,4.9-4.2
			c0.9-0.9,0.2-2.5-1.1-2.6c-21-0.1-42,0.2-63.1,1c-21,0.8-41.9,2.2-62.8,3.6c-10.3,0.7-20.5,1-30.8,0.6
			c-10.3-0.4-20.5-1.2-30.8-2.2c-20.9-2-41.8-4.1-62.6-6.1c-23.4-2.3-46.8-4.6-70.1-6.9C705.3,855.8,705.4,858.8,707.3,859
			L707.3,859z"/>
	</g>
</g>
<g class="st9">
	<path class="st10" d="M695.8,852.3c0.9,8.5,1.3,17.1,1.3,25.7c0,2.5,0,5-0.7,7.3c-1.2,3.8-4,7.2-4.1,11.3c6.4-0.1,12.5-4,15.3-9.7"
		/>
	<g>
		<path class="st10" d="M694.3,852.3c0.8,8,1.3,16.1,1.3,24.2c0,3.7,0,7.3-1.6,10.7c-1.4,3-3.1,5.9-3.3,9.4c0,0.8,0.7,1.5,1.5,1.5
			c6.9-0.2,13.5-4.2,16.6-10.5c0.9-1.7-1.7-3.2-2.6-1.5c-2.7,5.3-8.1,8.8-14,9c0.5,0.5,1,1,1.5,1.5c0.1-3.3,2.2-6.2,3.4-9.2
			c1.4-3.5,1.4-7.2,1.4-10.9c-0.1-8.1-0.5-16.2-1.3-24.2C697.1,850.4,694.1,850.4,694.3,852.3L694.3,852.3z"/>
	</g>
</g>
<g class="st9">
	<path class="st10" d="M684.3,642.1c13.6,6,27.9,11.2,42.8,11.9c9.9,0.4,19.8-1.2,29.7-2c15.1-1.1,30.2,0,45.3,1.1
		c5.2,0.4,10.4,0.8,15.5,1.2c7.9,0.6,15.8,1.2,23.6,2.5c7.4,1.3,14.9,3.3,22.3,2.2c-42.8,12.1-87.1,17.6-131.2,23.2
		c-6.3,0.8-12.7,1.6-18.9,0.6c-1.7-0.3-3.3-0.7-4.7-1.7c-1.8-1.4-2.5-3.7-3.2-5.9c-4.3-13.2-9.8-26-16.6-38.1"/>
	<g>
		<path class="st10" d="M683.6,643.4c10.4,4.6,21.2,8.8,32.4,10.8c5.8,1,11.6,1.5,17.5,1.3c6-0.2,12-0.9,18-1.5
			c12.1-1.2,24.2-1,36.4-0.3c12,0.7,24.1,1.6,36.1,2.6c6.8,0.5,13.5,1.3,20.2,2.6c6.6,1.3,13.1,2.5,19.8,1.6c-0.3-1-0.5-1.9-0.8-2.9
			c-26,7.3-52.7,12.3-79.4,16.3c-13.3,2-26.5,3.7-39.8,5.4c-6.7,0.8-13.5,1.9-20.2,2.4c-3.4,0.2-6.8,0.2-10.2-0.3
			c-1.4-0.2-2.8-0.6-3.9-1.5c-1-0.9-1.6-2.3-2.1-3.5c-2.4-6.8-4.7-13.6-7.5-20.2c-2.9-6.7-6.1-13.3-9.7-19.7
			c-0.9-1.7-3.5-0.2-2.6,1.5c6.5,11.7,12,24.1,16.1,36.8c0.8,2.5,1.6,5.3,3.6,7.2c2.4,2.2,5.8,2.5,8.9,2.7
			c6.9,0.5,13.8-0.6,20.6-1.5c27.4-3.4,54.8-7,81.9-12.1c15.2-2.9,30.2-6.3,45.1-10.5c1.9-0.5,1.1-3.2-0.8-2.9
			c-6,0.8-11.9-0.4-17.8-1.5c-5.7-1.1-11.4-1.9-17.2-2.5c-11.9-1.1-23.9-1.9-35.8-2.7c-12-0.8-24-1.3-36-0.4
			c-11.7,0.9-23.4,2.9-35.2,1.5c-12.6-1.5-24.7-6.1-36.3-11.2C683.3,640,681.8,642.6,683.6,643.4L683.6,643.4z"/>
	</g>
</g>
</svg>
